<svg xmlns="http://www.w3.org/2000/svg" width="90.466" height="38.582" viewBox="0 0 90.466 38.582"><g transform="translate(-678.984 -1066.396)"><path d="M1268.675,1095.557c-3.24,3.49-6.945,4.734-9.332,4.734a5.989,5.989,0,0,1-5.789-4.923,59.943,59.943,0,0,0,6.255-22.7v-.08c0-3.586-2.309-6.188-5.491-6.188s-5.607,2.6-5.612,6.06c0,0,0,21.8.014,22-1.615,1.721-5.727,5.832-11.119,5.832-3.786,0-5.134-3.326-5.134-6.438v-9.883h11.219v-4.687H1232.47V1068.13h-4.687v11.152h-4.1v4.687h4.1l0,10.827a14.731,14.731,0,0,1-10.69,5.391,3.053,3.053,0,0,1-3.065-3.036v-17.885h-4.687v17.885a7.746,7.746,0,0,0,7.752,7.723,19.15,19.15,0,0,0,12.137-4.854,10.174,10.174,0,0,0,.985,1.5,9.222,9.222,0,0,0,7.393,3.458c5.627,0,9.972-3.021,12.6-5.393a11.039,11.039,0,0,0,1.532,2.079,10.332,10.332,0,0,0,7.61,3.314c4.371,0,9.144-2.329,12.767-6.232Zm-15.539-22.527c0-.068,0-1.037,0-1.041a1.206,1.206,0,0,1,1.142-1.212,1.136,1.136,0,0,1,1.14,1.163,60.041,60.041,0,0,1-2.269,14.98Z" transform="translate(-502.66 0)" fill="#333"/><path d="M697.519,1313.125a12.44,12.44,0,0,1,.512,3.54c0,4.685-.974,8.559-6.059,16.1l-7.933-19.635h-5.056l10.277,25.437h4.333l.6-.781c6.428-9.008,8.528-14.279,8.528-21.115a17.228,17.228,0,0,0-.367-3.54Z" transform="translate(0 -233.846)" fill="#333"/><path d="M1198.194,1105.78a3.086,3.086,0,1,0-3.087-3.086,3.09,3.09,0,0,0,3.087,3.086" transform="translate(-489.173 -31.477)" fill="#333"/></g></svg>